<svg width="220" height="13" viewBox="0 0 220 13" fill="none" xmlns="http://www.w3.org/2000/svg">
<path d="M29.1309 2.09788C30.2338 0.994522 31.7117 0.454102 33.5866 0.454102C35.1086 0.454102 36.3439 0.791865 37.3145 1.48991C38.285 2.18796 38.7703 3.06614 38.7703 4.14698H37.0498C37.0498 3.24628 36.7189 2.52572 36.0571 1.94026C35.3954 1.3548 34.5572 1.08459 33.5425 1.08459C32.219 1.08459 31.1602 1.57998 30.3882 2.54823C29.6162 3.51649 29.2191 4.82251 29.2191 6.42126C29.2191 8.08756 29.6382 9.39358 30.4764 10.3844C31.3146 11.3751 32.4396 11.8705 33.8734 11.8705C34.5572 11.8705 35.1748 11.7579 35.7483 11.5553C36.3218 11.3301 36.763 11.0374 37.0939 10.6771V7.16434H33.2999V6.37622H38.7924V10.6996C38.3512 11.2851 37.7115 11.7354 36.8512 12.0507C35.991 12.3884 35.0204 12.546 33.9175 12.546C31.9102 12.546 30.322 11.9831 29.175 10.8797C28.028 9.77638 27.4324 8.29022 27.4324 6.44378C27.4765 4.64237 28.028 3.17873 29.1309 2.09788Z" fill="black"/>
<path d="M0.146484 0.566689V12.4109H8.88151V11.6228H1.84496V6.75902H7.95507V5.94839H1.84496V1.3548H8.88151V0.566689H0.146484Z" fill="black"/>
<path d="M14.7931 7.92994V0.566689H13.1167V7.8849C13.1167 9.30351 13.5578 10.4294 14.5063 11.2625C15.4548 12.0957 16.6901 12.5235 18.2342 12.5235C19.7562 12.5235 20.9914 12.1182 21.9399 11.2625C22.8884 10.4069 23.3516 9.281 23.3516 7.8849V0.566689H22.4914V7.92994C22.4914 8.98826 22.1384 9.86645 21.4326 10.5195C20.7267 11.1725 19.8003 11.5102 18.6533 11.5102C17.4842 11.5102 16.5577 11.1725 15.8519 10.5195C15.146 9.86645 14.7931 9.01078 14.7931 7.92994Z" fill="black"/>
<path d="M43.3584 0.566689V12.4109H52.0934V11.6228H45.0569V6.75902H51.167V5.94839H45.0569V1.3548H52.0934V0.566689H43.3584Z" fill="black"/>
<path d="M56.4389 12.4109V0.566689H57.2771L65.8797 10.1817V0.566689H66.74V12.4109H65.8797L57.2991 2.77341V12.4109H56.4389Z" fill="black"/>
<path d="M73.4016 0.566689H71.7031V12.4109H73.4016V0.566689Z" fill="black"/>
<path fill-rule="evenodd" clip-rule="evenodd" d="M77.2617 12.4109L82.5778 0.566689H83.5263L88.8202 12.4109H87.0556L85.5777 9.10085H79.6881L78.1882 12.4109H77.2617ZM85.2909 8.47036L82.6439 2.59327L79.9749 8.47036H85.2909Z" fill="black"/>
<path d="M101.217 0.566689H99.5405V12.4109H108.055V11.6228H101.217V0.566689Z" fill="black"/>
<path d="M112.246 12.4109V0.566689H120.981V1.3548H113.944V5.94839H120.055V6.75902H113.944V11.6228H120.981V12.4109H112.246Z" fill="black"/>
<path fill-rule="evenodd" clip-rule="evenodd" d="M130.466 0.454102C128.679 0.454102 127.245 1.01704 126.165 2.1204C125.084 3.22376 124.532 4.64237 124.532 6.4663C124.532 8.29022 125.084 9.75386 126.165 10.8572C127.245 11.9606 128.679 12.5235 130.466 12.5235C132.231 12.5235 133.664 11.9606 134.745 10.8572C135.826 9.75386 136.378 8.29022 136.378 6.48881C136.378 4.6874 135.826 3.22376 134.745 2.1204C133.664 1.01704 132.231 0.454102 130.466 0.454102ZM130.466 11.893C129.209 11.893 128.216 11.3976 127.444 10.4069C126.672 9.4161 126.297 8.11008 126.297 6.48881C126.297 4.86755 126.672 3.56153 127.444 2.57075C128.194 1.57998 129.209 1.08459 130.466 1.08459C131.723 1.08459 132.716 1.57998 133.488 2.57075C134.26 3.56153 134.635 4.86755 134.635 6.48881C134.635 8.11008 134.26 9.4161 133.488 10.4069C132.716 11.3976 131.723 11.893 130.466 11.893Z" fill="black"/>
<path d="M140.789 0.566689H141.627L150.208 10.1817V0.566689H151.068V12.4109H150.208L141.627 2.77341V12.4109H140.789V0.566689Z" fill="black"/>
<path d="M161.237 12.4335V1.3548H165.671V0.566689H155.083V1.37732H159.539V12.4335H161.237Z" fill="black"/>
<path d="M168.649 0.566689H170.568L174.648 6.64644L178.751 0.566689H179.766L175.178 7.47959V12.4109H173.479V7.86238L168.649 0.566689Z" fill="black"/>
<path d="M192.361 0.566689H183.626V12.4109H192.361V11.6228H185.325V6.75902H191.435V5.94839H185.325V1.3548H192.361V0.566689Z" fill="black"/>
<path d="M197.39 0.566689L201.78 10.4069L206.17 0.566689H207.096L201.802 12.4109H200.876L195.626 0.566689H197.39Z" fill="black"/>
<path fill-rule="evenodd" clip-rule="evenodd" d="M214.706 0.566689H213.758L208.442 12.4109V12.4335H209.368L210.868 9.12337H216.757L218.235 12.4109H220L214.706 0.566689ZM213.802 2.59327L216.449 8.47036H211.133L213.802 2.59327Z" fill="black"/>
</svg>
